<svg width="68" height="68" viewBox="0 0 68 68" fill="none" xmlns="http://www.w3.org/2000/svg">
<g filter="url(#filter0_d_70_3005)">
<rect width="64" height="64" rx="6.93976" fill="#D7D7D7"/>
<rect x="1.54217" y="1.54217" width="60.9157" height="60.9157" rx="5.39759" stroke="black" stroke-width="3.08434"/>
</g>
<g clip-path="url(#clip0_70_3005)">
<path d="M32.3853 37.012C34.9404 37.012 37.0118 34.9407 37.0118 32.3855C37.0118 29.8304 34.9404 27.759 32.3853 27.759C29.8301 27.759 27.7588 29.8304 27.7588 32.3855C27.7588 34.9407 29.8301 37.012 32.3853 37.012Z" stroke="black" stroke-width="3.08434" stroke-linecap="round" stroke-linejoin="round"/>
<path d="M43.7978 37.012C43.5925 37.4771 43.5313 37.9931 43.622 38.4934C43.7127 38.9937 43.9512 39.4553 44.3067 39.8187L44.3992 39.9113C44.686 40.1977 44.9135 40.5379 45.0687 40.9123C45.2239 41.2868 45.3038 41.6881 45.3038 42.0934C45.3038 42.4988 45.2239 42.9001 45.0687 43.2746C44.9135 43.649 44.686 43.9892 44.3992 44.2756C44.1128 44.5624 43.7726 44.7899 43.3982 44.9451C43.0237 45.1003 42.6224 45.1802 42.2171 45.1802C41.8117 45.1802 41.4104 45.1003 41.0359 44.9451C40.6615 44.7899 40.3213 44.5624 40.0349 44.2756L39.9424 44.1831C39.5789 43.8276 39.1173 43.5891 38.617 43.4983C38.1167 43.4076 37.6008 43.4689 37.1356 43.6742C36.6795 43.8697 36.2905 44.1943 36.0165 44.608C35.7425 45.0217 35.5954 45.5066 35.5934 46.0028V46.265C35.5934 47.083 35.2685 47.8675 34.6901 48.446C34.1116 49.0244 33.3271 49.3493 32.5091 49.3493C31.6911 49.3493 30.9066 49.0244 30.3281 48.446C29.7497 47.8675 29.4248 47.083 29.4248 46.265V46.1262C29.4128 45.6158 29.2476 45.1207 28.9506 44.7054C28.6535 44.2901 28.2384 43.9738 27.7592 43.7975C27.2941 43.5922 26.7781 43.531 26.2778 43.6217C25.7776 43.7124 25.3159 43.9509 24.9525 44.3065L24.8599 44.399C24.5735 44.6858 24.2333 44.9132 23.8589 45.0685C23.4845 45.2237 23.0831 45.3036 22.6778 45.3036C22.2724 45.3036 21.8711 45.2237 21.4967 45.0685C21.1222 44.9132 20.7821 44.6858 20.4956 44.399C20.2088 44.1125 19.9813 43.7724 19.8261 43.3979C19.6709 43.0235 19.591 42.6221 19.591 42.2168C19.591 41.8115 19.6709 41.4101 19.8261 41.0357C19.9813 40.6613 20.2088 40.3211 20.4956 40.0346L20.5881 39.9421C20.9437 39.5787 21.1822 39.117 21.2729 38.6168C21.3636 38.1165 21.3023 37.6005 21.0971 37.1354C20.9016 36.6792 20.577 36.2902 20.1632 36.0162C19.7495 35.7422 19.2646 35.5952 18.7684 35.5932H18.5062C17.6882 35.5932 16.9037 35.2682 16.3253 34.6898C15.7468 34.1114 15.4219 33.3269 15.4219 32.5089C15.4219 31.6908 15.7468 30.9063 16.3253 30.3279C16.9037 29.7495 17.6882 29.4245 18.5062 29.4245H18.645C19.1555 29.4126 19.6505 29.2474 20.0658 28.9503C20.4811 28.6533 20.7974 28.2382 20.9737 27.759C21.179 27.2938 21.2402 26.7779 21.1495 26.2776C21.0588 25.7773 20.8203 25.3157 20.4648 24.9522L20.3722 24.8597C20.0855 24.5733 19.858 24.2331 19.7028 23.8587C19.5475 23.4842 19.4676 23.0829 19.4676 22.6775C19.4676 22.2722 19.5475 21.8709 19.7028 21.4964C19.858 21.122 20.0855 20.7818 20.3722 20.4954C20.6587 20.2086 20.9989 19.9811 21.3733 19.8259C21.7477 19.6707 22.1491 19.5908 22.5544 19.5908C22.9597 19.5908 23.3611 19.6707 23.7355 19.8259C24.11 19.9811 24.4501 20.2086 24.7366 20.4954L24.8291 20.5879C25.1926 20.9434 25.6542 21.1819 26.1545 21.2726C26.6547 21.3633 27.1707 21.3021 27.6359 21.0968H27.7592C28.2154 20.9013 28.6044 20.5767 28.8784 20.163C29.1524 19.7492 29.2994 19.2644 29.3014 18.7681V18.506C29.3014 17.688 29.6264 16.9034 30.2048 16.325C30.7832 15.7466 31.5677 15.4216 32.3857 15.4216C33.2037 15.4216 33.9883 15.7466 34.5667 16.325C35.1451 16.9034 35.4701 17.688 35.4701 18.506V18.6448C35.472 19.141 35.6191 19.6259 35.8931 20.0396C36.1671 20.4534 36.5561 20.7779 37.0122 20.9734C37.4774 21.1787 37.9934 21.24 38.4936 21.1493C38.9939 21.0585 39.4555 20.82 39.819 20.4645L39.9115 20.372C40.198 20.0852 40.5381 19.8577 40.9126 19.7025C41.287 19.5473 41.6884 19.4674 42.0937 19.4674C42.499 19.4674 42.9004 19.5473 43.2748 19.7025C43.6492 19.8577 43.9894 20.0852 44.2759 20.372C44.5626 20.6584 44.7901 20.9986 44.9453 21.373C45.1006 21.7475 45.1804 22.1488 45.1804 22.5542C45.1804 22.9595 45.1006 23.3608 44.9453 23.7353C44.7901 24.1097 44.5626 24.4499 44.2759 24.7363L44.1833 24.8289C43.8278 25.1923 43.5893 25.6539 43.4986 26.1542C43.4079 26.6545 43.4691 27.1705 43.6744 27.6356V27.759C43.8699 28.2151 44.1945 28.6041 44.6082 28.8781C45.022 29.1521 45.5068 29.2992 46.0031 29.3011H46.2652C47.0833 29.3011 47.8678 29.6261 48.4462 30.2045C49.0246 30.783 49.3496 31.5675 49.3496 32.3855C49.3496 33.2035 49.0246 33.988 48.4462 34.5664C47.8678 35.1449 47.0833 35.4698 46.2652 35.4698H46.1265C45.6302 35.4718 45.1454 35.6188 44.7316 35.8929C44.3179 36.1669 43.9933 36.5559 43.7978 37.012Z" stroke="black" stroke-width="3.08434" stroke-linecap="round" stroke-linejoin="round"/>
</g>
<defs>
<filter id="filter0_d_70_3005" x="0" y="0" width="67.0843" height="67.0843" filterUnits="userSpaceOnUse" color-interpolation-filters="sRGB">
<feFlood flood-opacity="0" result="BackgroundImageFix"/>
<feColorMatrix in="SourceAlpha" type="matrix" values="0 0 0 0 0 0 0 0 0 0 0 0 0 0 0 0 0 0 127 0" result="hardAlpha"/>
<feOffset dx="3.08434" dy="3.08434"/>
<feComposite in2="hardAlpha" operator="out"/>
<feColorMatrix type="matrix" values="0 0 0 0 0 0 0 0 0 0 0 0 0 0 0 0 0 0 1 0"/>
<feBlend mode="normal" in2="BackgroundImageFix" result="effect1_dropShadow_70_3005"/>
<feBlend mode="normal" in="SourceGraphic" in2="effect1_dropShadow_70_3005" result="shape"/>
</filter>
<clipPath id="clip0_70_3005">
<rect width="37.012" height="37.012" fill="white" transform="translate(13.8799 13.8795)"/>
</clipPath>
</defs>
</svg>
